<?xml version="1.0" encoding="UTF-8"?>
<svg width="200" height="200" viewBox="0 0 200 200" xmlns="http://www.w3.org/2000/svg">
    <!-- Five segments of the circle -->
    <path d="M100 10 A90 90 0 0 1 190 100 L100 100 Z" fill="#264653"/>
    <path d="M190 100 A90 90 0 0 1 100 190 L100 100 Z" fill="#2a9d8f"/>
    <path d="M100 190 A90 90 0 0 1 10 100 L100 100 Z" fill="#e9c46a"/>
    <path d="M10 100 A90 90 0 0 1 100 10 L100 100 Z" fill="#f4a261"/>
    <circle cx="100" cy="100" r="50" fill="#e76f51"/>
    
    <!-- Letters group - centered in circle -->
    <g transform="translate(100 100)">
        <!-- C letter -->
        <path d="M-10 -15
                 A15 15 0 0 0 -25 0
                 A15 15 0 0 0 -8 17"
              fill="none"
              stroke="white"
              strokeWidth="6"
              stroke-linecap="round"/>
        
        <!-- T letter -->
        <path d="M5 -15 L25 -15
                 M15 -15 L15 15"
              fill="none"
              stroke="white"
              strokeWidth="6"
              stroke-linecap="round"/>
    </g>
</svg> 